<svg width="300" height="94" viewBox="0 0 300 94" fill="none" xmlns="http://www.w3.org/2000/svg">
<path d="M47.3096 90.3018C71.3173 90.3018 90.7793 70.951 90.7793 47.0806C90.7793 23.2102 71.3173 3.85938 47.3096 3.85938C23.3019 3.85938 3.83984 23.2102 3.83984 47.0806C3.83984 70.951 23.3019 90.3018 47.3096 90.3018Z" fill="url(#paint0_linear_82_314)"/>
<path d="M50.9847 31.4313C50.8259 30.8888 50.657 30.348 50.4627 29.8223C50.3681 29.5587 50.2685 29.2984 50.157 29.0464C50.0455 28.7979 49.9222 28.551 49.7752 28.3545C49.7043 28.2588 49.6198 28.1765 49.5658 28.1563C49.5388 28.1446 49.5354 28.153 49.5388 28.1563V28.158L49.5219 28.1614C49.5151 28.163 49.51 28.1647 49.5117 28.1664C49.5117 28.1681 49.5168 28.1697 49.5134 28.1714C49.4965 28.1865 49.4239 28.284 49.3732 28.3881C49.3192 28.4939 49.2685 28.6148 49.2212 28.7374C49.0354 29.2362 48.8935 29.777 48.7584 30.3161C48.4847 31.396 48.2499 32.4961 48.0321 33.5978C47.8108 34.7012 47.5861 35.8029 47.38 36.9114L47.0709 38.5741L46.75 40.2367C46.6419 40.7927 46.5355 41.3502 46.4172 41.9112C46.299 42.4738 46.1774 43.0364 46.0119 43.6192C45.9291 43.9114 45.8328 44.207 45.6926 44.5211C45.625 44.6773 45.5406 44.8419 45.4342 45.0115C45.3278 45.1794 45.1876 45.3642 44.9764 45.5405C44.7703 45.7152 44.4595 45.8663 44.1504 45.9033C43.843 45.9453 43.5356 45.8932 43.3025 45.8025C42.8295 45.6161 42.5441 45.3541 42.2924 45.1106C41.8042 44.6134 41.4681 44.1062 41.1455 43.599C40.8296 43.0902 40.5458 42.5846 40.2756 42.0724C39.2047 40.0184 38.3145 37.8771 37.6203 35.6787C36.9463 33.4735 36.4142 31.2281 36.1304 28.9423C36.0561 28.3713 35.997 27.7986 35.9497 27.2225C35.9278 26.9337 35.9092 26.6465 35.8957 26.3509C35.8872 26.057 35.8838 25.7748 35.8838 25.4876C35.8821 24.3422 35.9244 23.1968 36.0139 22.0582C36.2149 19.7825 36.5831 17.5253 37.1912 15.3369L37.2909 15.3554C36.8737 17.574 36.6271 19.8228 36.546 22.0766C36.4818 24.3305 36.5308 26.5944 36.9125 28.8197C37.2723 31.0467 37.8162 33.2418 38.5223 35.3848C39.2317 37.5261 40.1067 39.6137 41.1691 41.6038C41.4326 42.1026 41.7012 42.5981 41.9968 43.0767C42.2924 43.5537 42.6066 44.0239 42.9934 44.4203C43.1876 44.6151 43.4021 44.7931 43.6471 44.8889C43.8886 44.9846 44.1623 44.9594 44.3582 44.7898C44.5575 44.6269 44.6926 44.3783 44.8075 44.1298C44.9224 43.8778 45.0119 43.6125 45.0947 43.3454C45.4139 42.2689 45.6369 41.1588 45.8784 40.057C46.1132 38.952 46.3497 37.8469 46.5946 36.7434C46.8395 35.64 47.0929 34.5383 47.3615 33.4399C47.63 32.3416 47.9121 31.2465 48.2415 30.1633C48.4087 29.6225 48.5827 29.0817 48.8124 28.5594C48.8716 28.4301 48.9324 28.2991 49.0084 28.1748C49.0844 28.0522 49.1638 27.9245 49.3006 27.8339C49.3715 27.7885 49.456 27.7717 49.5337 27.77C49.6181 27.77 49.7009 27.7986 49.7651 27.8406C49.8985 27.9262 49.9881 28.0488 50.0675 28.1697C50.2212 28.4166 50.331 28.682 50.4289 28.949C50.5269 29.2161 50.6097 29.4881 50.6874 29.7602C50.8411 30.306 50.9661 30.8586 51.0809 31.4111L50.9847 31.4313Z" fill="white"/>
<path d="M35.3906 14.8048C36.1626 14.1447 37.0561 13.6241 38.0054 13.2109C38.4834 13.0111 38.9766 12.8431 39.48 12.7004C39.9851 12.5576 40.5121 12.4703 41.0391 12.4065C41.3026 12.3762 41.5678 12.3544 41.833 12.3426C41.9664 12.3343 42.0982 12.3343 42.2299 12.3343C42.3617 12.3343 42.4934 12.3326 42.6252 12.3376C43.1522 12.3443 43.6724 12.3981 44.1893 12.4602C44.4477 12.4921 44.7045 12.5324 44.9579 12.5778C45.2129 12.6198 45.4646 12.6718 45.718 12.7222C46.2213 12.8314 46.7179 12.9557 47.2112 13.09C49.179 13.6426 51.0826 14.4101 52.8596 15.3943C54.6433 16.3633 56.3105 17.5373 57.7699 18.9329L57.7142 19.0169C56.8831 18.4744 56.0335 17.9588 55.167 17.4768C54.3021 16.9897 53.4187 16.5363 52.5184 16.1181C50.7195 15.2817 48.8513 14.5881 46.9392 14.0607C45.9848 13.792 45.017 13.5636 44.039 13.4041C43.061 13.2445 42.0694 13.1622 41.083 13.2076C40.0965 13.2529 39.1168 13.4444 38.1709 13.7316C37.2216 14.0137 36.3078 14.4084 35.443 14.8921L35.3906 14.8048Z" fill="white"/>
<path d="M53.0289 19.1645C52.7874 19.3576 52.5103 19.5474 52.1539 19.5659C51.9766 19.5743 51.7942 19.5122 51.6421 19.4181C51.4901 19.3224 51.3668 19.1947 51.2621 19.0587C51.0509 18.7849 50.9192 18.4726 50.8178 18.1551C50.7182 17.8377 50.6557 17.5102 50.627 17.1777C50.6134 17.0114 50.6253 16.8452 50.6422 16.6806C50.6607 16.516 50.6793 16.3497 50.7097 16.1868C50.7672 15.8593 50.8618 15.5352 50.9918 15.2228C51.1253 14.9071 51.2891 14.6232 51.4732 14.3495C51.659 14.0757 51.8651 13.8154 52.1117 13.5769C52.36 13.3418 52.6472 13.1151 53.0357 12.9992C53.1319 12.9706 53.2367 12.9538 53.3414 12.9471C53.4461 12.9437 53.561 12.9505 53.659 12.9723C53.86 13.0126 54.0525 13.0999 54.2113 13.2125C54.5339 13.4392 54.74 13.7398 54.9072 14.0371C55.0711 14.336 55.191 14.6451 55.2923 14.9541C55.4917 15.5738 55.6133 16.2002 55.7062 16.8267C55.7974 17.4531 55.8582 18.0812 55.8987 18.7077C55.9798 19.9606 55.9815 21.2185 55.9511 22.4613C55.9274 23.7075 55.8734 24.9604 55.7433 26.2099C55.6133 27.4577 55.414 28.7039 55.1099 29.9282C54.7062 31.1274 54.2062 32.2929 53.5559 33.3644C53.9596 32.1821 54.2569 30.9813 54.4528 29.767C54.7501 28.5796 54.9427 27.3637 55.0711 26.141C55.1977 24.9167 55.2518 23.6856 55.2754 22.4479C55.3075 21.2084 55.3042 19.9791 55.2248 18.7514C55.1859 18.1384 55.1268 17.5287 55.039 16.9241C54.9494 16.3228 54.8312 15.725 54.6505 15.1606C54.5593 14.8802 54.4512 14.6064 54.316 14.3595C54.1809 14.116 54.0154 13.8943 53.8245 13.7617C53.7299 13.6945 53.6302 13.6508 53.5255 13.629C53.4225 13.6071 53.3313 13.6122 53.2232 13.6441C53.0086 13.7045 52.7823 13.8658 52.583 14.0589C52.1843 14.4502 51.8414 14.9658 51.6151 15.4814C51.3938 16.0054 51.3009 16.5899 51.3077 17.1676C51.2705 17.742 51.3246 18.3516 51.5746 18.8605C51.6996 19.1108 51.8921 19.3274 52.1658 19.3711C52.4428 19.4181 52.7536 19.3073 53.0289 19.1645Z" fill="white"/>
<path d="M30.1152 51.6353L30.7216 51.7881C30.5949 52.2835 30.3652 52.6614 30.0358 52.9217C29.7048 53.1821 29.3011 53.3114 28.823 53.3114C28.3281 53.3114 27.9261 53.2106 27.617 53.0108C27.3079 52.8109 27.0714 52.5204 26.9093 52.1408C26.7471 51.7612 26.666 51.3531 26.666 50.9181C26.666 50.4428 26.7572 50.0297 26.9397 49.6753C27.1221 49.3226 27.3822 49.0539 27.7183 48.8692C28.0545 48.6861 28.4261 48.5938 28.8298 48.5938C29.2892 48.5938 29.6744 48.7096 29.9868 48.9414C30.2993 49.1732 30.5172 49.5007 30.6405 49.9205L30.0426 50.0599C29.9362 49.7274 29.7825 49.4872 29.5798 49.3361C29.3771 49.1849 29.1237 49.1093 28.8163 49.1093C28.4633 49.1093 28.1693 49.1933 27.9329 49.3613C27.6964 49.5292 27.5292 49.7543 27.4346 50.0381C27.34 50.3219 27.291 50.6125 27.291 50.9131C27.291 51.3011 27.3484 51.6386 27.4616 51.9292C27.5748 52.2181 27.7521 52.4347 27.992 52.5775C28.2318 52.7202 28.492 52.7924 28.7707 52.7924C29.1102 52.7924 29.399 52.695 29.6338 52.5002C29.872 52.3087 30.0325 52.0199 30.1152 51.6353Z" fill="white"/>
<path d="M31.0947 49.9321H33.794V50.3957H32.7247V53.2356H32.1656V50.3957H31.0964V49.9321H31.0947Z" fill="white"/>
<path d="M34.0508 51.5834C34.0508 50.9721 34.2214 50.5186 34.5643 50.2247C34.8497 49.9795 35.1977 49.8569 35.6098 49.8569C36.0659 49.8569 36.4392 50.0064 36.7297 50.3037C37.0203 50.6009 37.1638 51.0124 37.1638 51.5364C37.1638 51.9613 37.0997 52.2955 36.9713 52.5391C36.8429 52.7826 36.6571 52.9724 36.4122 53.1067C36.1673 53.2411 35.9004 53.3083 35.6098 53.3083C35.1453 53.3083 34.7687 53.1605 34.4815 52.8632C34.1927 52.5676 34.0508 52.141 34.0508 51.5834ZM34.6285 51.5834C34.6285 52.0067 34.7214 52.3224 34.9072 52.534C35.093 52.7439 35.3261 52.8498 35.6082 52.8498C35.8869 52.8498 36.12 52.744 36.3058 52.5323C36.4916 52.3207 36.5845 51.9983 36.5845 51.565C36.5845 51.1568 36.4916 50.8478 36.3041 50.6362C36.1183 50.4263 35.8852 50.3205 35.6082 50.3205C35.3261 50.3205 35.093 50.4246 34.9072 50.6345C34.7214 50.8445 34.6285 51.1602 34.6285 51.5834Z" fill="white"/>
<path d="M37.8379 49.9321H38.7145L39.5878 52.5756L40.5574 49.9321H41.3682V53.2356H40.8057V50.577L39.8243 53.2356H39.3209L38.3919 50.4494V53.2356H37.8413V49.9321H37.8379Z" fill="white"/>
<path d="M44.3951 52.8277C44.1874 53.004 43.9864 53.1283 43.7938 53.2005C43.6012 53.2728 43.3935 53.3097 43.1722 53.3097C42.8074 53.3097 42.527 53.2207 42.331 53.0443C42.1351 52.8663 42.0371 52.6413 42.0371 52.3642C42.0371 52.2029 42.0743 52.0551 42.1486 51.9208C42.2229 51.7864 42.3192 51.6789 42.4391 51.5983C42.5591 51.5177 42.6942 51.4556 42.8445 51.4153C42.9543 51.3867 43.1215 51.3582 43.3445 51.3313C43.7989 51.2776 44.1333 51.2137 44.3478 51.1382C44.3495 51.0609 44.3512 51.0122 44.3512 50.992C44.3512 50.7636 44.2989 50.6041 44.1907 50.51C44.0472 50.3841 43.8327 50.3203 43.5489 50.3203C43.2837 50.3203 43.0877 50.3656 42.9628 50.458C42.8361 50.5503 42.7432 50.7132 42.6824 50.9484L42.1317 50.8745C42.1824 50.6394 42.2635 50.4513 42.3783 50.3068C42.4932 50.1624 42.6587 50.0515 42.8749 49.9743C43.0911 49.897 43.3428 49.8584 43.6283 49.8584C43.912 49.8584 44.1418 49.892 44.3191 49.9575C44.4965 50.0247 44.6265 50.107 44.711 50.2077C44.7938 50.3085 44.8529 50.4345 44.8867 50.589C44.9052 50.6847 44.9154 50.856 44.9154 51.1046V51.8502C44.9154 52.3709 44.9272 52.7001 44.9509 52.8378C44.9745 52.9755 45.0218 53.1082 45.0927 53.2341H44.5049C44.4492 53.1182 44.412 52.9822 44.3951 52.8277ZM44.3478 51.5765C44.1435 51.6588 43.836 51.7293 43.4289 51.7881C43.1975 51.8217 43.0337 51.8586 42.9374 51.9006C42.8411 51.9426 42.7668 52.0031 42.7161 52.082C42.6638 52.1626 42.6384 52.25 42.6384 52.3474C42.6384 52.4968 42.6959 52.6211 42.809 52.7202C42.9222 52.8193 43.0894 52.8697 43.3073 52.8697C43.5235 52.8697 43.7178 52.8227 43.8867 52.7286C44.0556 52.6346 44.1789 52.5052 44.2583 52.3407C44.3191 52.2147 44.3495 52.0283 44.3495 51.7814V51.5765H44.3478Z" fill="white"/>
<path d="M45.3457 49.9321H48.0449V50.3957H46.9757V53.2356H46.4166V50.3957H45.3474V49.9321H45.3457Z" fill="white"/>
<path d="M48.3018 51.5834C48.3018 50.9721 48.4724 50.5186 48.8153 50.2247C49.1007 49.9795 49.4487 49.8569 49.8608 49.8569C50.3169 49.8569 50.6902 50.0064 50.9807 50.3037C51.2713 50.6009 51.4148 51.0124 51.4148 51.5364C51.4148 51.9613 51.3506 52.2955 51.2223 52.5391C51.0939 52.7826 50.9081 52.9724 50.6632 53.1067C50.4182 53.2411 50.1514 53.3083 49.8608 53.3083C49.3963 53.3083 49.0196 53.1605 48.7325 52.8632C48.4453 52.5659 48.3018 52.141 48.3018 51.5834ZM48.8794 51.5834C48.8794 52.0067 48.9723 52.3224 49.1582 52.534C49.344 52.7456 49.5771 52.8498 49.8591 52.8498C50.1378 52.8498 50.3709 52.744 50.5568 52.5323C50.7426 52.3207 50.8355 51.9983 50.8355 51.565C50.8355 51.1568 50.7426 50.8478 50.5551 50.6362C50.3693 50.4263 50.1362 50.3205 49.8591 50.3205C49.5771 50.3205 49.344 50.4246 49.1582 50.6345C48.9723 50.8445 48.8794 51.1602 48.8794 51.5834Z" fill="white"/>
<path d="M52.2092 49.9321H54.824V53.2356H54.2632V50.3957H52.7717V52.0415C52.7717 52.4245 52.7599 52.6781 52.7345 52.8007C52.7092 52.9233 52.64 53.0291 52.5285 53.1214C52.417 53.2138 52.2531 53.2575 52.0403 53.2575C51.9086 53.2575 51.7582 53.2491 51.5859 53.2323V52.7654H51.8325C51.9491 52.7654 52.0336 52.7536 52.0825 52.7301C52.1332 52.7066 52.1653 52.668 52.1822 52.6159C52.1991 52.5639 52.2075 52.3959 52.2075 52.1087V49.9321H52.2092Z" fill="white"/>
<path d="M55.5332 51.5834C55.5332 50.9721 55.7038 50.5186 56.0467 50.2247C56.3322 49.9795 56.6801 49.8569 57.0923 49.8569C57.5483 49.8569 57.9216 50.0064 58.2122 50.3037C58.5027 50.6009 58.6463 51.0124 58.6463 51.5364C58.6463 51.9613 58.5821 52.2955 58.4537 52.5391C58.3253 52.7826 58.1395 52.9724 57.8946 53.1067C57.6497 53.2411 57.3828 53.3083 57.0923 53.3083C56.6278 53.3083 56.2511 53.1605 55.9639 52.8632C55.6768 52.5659 55.5332 52.141 55.5332 51.5834ZM56.1126 51.5834C56.1126 52.0067 56.2055 52.3224 56.3913 52.534C56.5771 52.7456 56.8102 52.8498 57.0923 52.8498C57.371 52.8498 57.6041 52.744 57.7899 52.5323C57.9757 52.3207 58.0686 51.9983 58.0686 51.565C58.0686 51.1568 57.9757 50.8478 57.7882 50.6362C57.6024 50.4263 57.3693 50.3205 57.0923 50.3205C56.8102 50.3205 56.5771 50.4246 56.3913 50.6345C56.2055 50.8445 56.1126 51.1602 56.1126 51.5834Z" fill="white"/>
<path d="M59.3086 49.9321H61.219V50.3957H59.8711V53.2356H59.3086V49.9321Z" fill="white"/>
<path d="M61.6426 49.9321H62.2051V52.4513L63.7658 49.9321H64.3722V53.2356H63.8097V50.7316L62.249 53.2356H61.6426V49.9321Z" fill="white"/>
<path d="M67.8372 49.9321V53.2356H67.2781V51.9475H66.9521C66.7545 51.9475 66.6059 51.9727 66.5096 52.0231C66.4133 52.0735 66.2714 52.2364 66.0856 52.5135L65.5941 53.2356H64.8965L65.5029 52.3455C65.6887 52.0735 65.8728 51.9206 66.0569 51.8854C65.736 51.8417 65.4978 51.7275 65.3424 51.5394C65.187 51.353 65.1093 51.138 65.1093 50.8961C65.1093 50.6106 65.2107 50.3772 65.415 50.1992C65.6177 50.0211 65.9133 49.9321 66.2985 49.9321H67.8372ZM67.2765 50.394H66.4758C66.1397 50.394 65.9235 50.446 65.8272 50.5502C65.7309 50.6543 65.6819 50.7752 65.6819 50.9146C65.6819 51.1111 65.7529 51.2556 65.8964 51.3479C66.0383 51.4403 66.2917 51.4856 66.6549 51.4856H67.2781V50.394H67.2765Z" fill="white"/>
<path d="M15.9688 61.2737C15.9688 58.7159 17.739 57.2598 19.6747 57.2598C20.6899 57.2598 21.5159 57.73 22.0598 58.2691L20.9973 59.5606C20.6189 59.2315 20.2422 58.998 19.722 58.998C18.8251 58.998 18.0464 59.8193 18.0464 61.2048C18.0464 62.6374 18.7068 63.4352 19.6983 63.4352C20.2879 63.4352 20.7608 63.1295 21.0919 62.7785L22.1543 64.0465C21.5057 64.7972 20.6206 65.1734 19.6274 65.1734C17.668 65.1701 15.9688 63.8786 15.9688 61.2737Z" fill="white"/>
<path d="M23.2168 57.3994H28.1744V59.089H25.2471V60.2864H27.7504V61.976H25.2471V63.338H28.2926V65.0276H23.2168V57.3994Z" fill="white"/>
<path d="M29.7793 57.3994H31.9515L33.1086 60.5216C33.2505 60.9448 33.3687 61.4134 33.5106 61.8601H33.5579C33.6998 61.4134 33.818 60.9448 33.9599 60.5216L35.0696 57.3994H37.2419V65.0293H35.4007V62.7754C35.4007 62.0012 35.5663 60.8155 35.6608 60.053H35.6135L34.9767 61.8836L34.0325 64.4079H32.9464L32.0022 61.8836L31.389 60.053H31.3417C31.4363 60.8155 31.6019 62.0012 31.6019 62.7754V65.0293H29.7793V57.3994Z" fill="white"/>
<path d="M38.9395 57.3994H43.897V59.089H40.9698V60.2864H43.4731V61.976H40.9698V63.338H44.0153V65.0276H38.9395V57.3994Z" fill="white"/>
<path d="M45.502 57.3992H47.5086V59.606C47.5086 60.5449 47.3431 61.6953 47.2485 62.5166H47.2958L48.0272 60.8035L49.7265 57.3992H51.875V65.029H49.8684V62.8222C49.8684 61.8834 50.0339 60.78 50.1285 59.9117H50.0812L49.3498 61.613L47.6505 65.029H45.502V57.3992ZM46.5171 55.1235H48.2164C48.24 55.5585 48.4056 55.7802 48.7366 55.7802C49.0677 55.7802 49.2316 55.5568 49.2552 55.1235H50.9545C50.9072 56.1094 50.3177 56.7661 48.7349 56.7661C47.1556 56.7661 46.5644 56.1094 46.5171 55.1235Z" fill="white"/>
<path d="M53.5752 57.3994H55.6055V60.2394H57.896V57.3994H59.9263V65.0293H57.896V62.0012H55.6055V65.0293H53.5752V57.3994Z" fill="white"/>
<path d="M61.6279 57.3994H63.6583V60.0513H64.2478C65.9943 60.0513 67.3169 60.7315 67.3169 62.4697C67.3169 64.3944 65.8997 65.0276 64.2005 65.0276H61.6279V57.3994ZM64.1059 63.4321C64.8609 63.4321 65.3339 63.1734 65.3339 62.4933C65.3339 61.9306 64.9319 61.6485 64.1059 61.6485H63.6566V63.4321H64.1059ZM68.2138 57.3994H70.2442V65.0293H68.2138V57.3994Z" fill="white"/>
<path d="M71.9434 57.3992H73.95V59.606C73.95 60.5449 73.7845 61.6953 73.6899 62.5166H73.7372L74.4686 60.8035L76.1679 57.3992H78.3164V65.029H76.3098V62.8222C76.3098 61.8834 76.4753 60.78 76.5699 59.9117H76.5226L75.7912 61.613L74.0919 65.029H71.9434V57.3992ZM72.9585 55.1235H74.6595C74.6831 55.5585 74.8487 55.7802 75.1797 55.7802C75.5108 55.7802 75.6746 55.5568 75.6983 55.1235H77.3976C77.3503 56.1094 76.7608 56.7661 75.178 56.7661C73.597 56.7661 73.0058 56.1094 72.9585 55.1235Z" fill="white"/>
<path d="M26.7457 77.8669H24.9282L24.7627 75.2386V73.9706H32.6239V75.2386L32.4584 77.8669H30.6409V75.6601H26.7457V77.8669ZM29.6257 69.7215H28.3977C28.2558 70.4957 28.1967 70.8249 28.043 71.6227C27.6173 73.806 26.815 75.2369 25.3758 75.2369L25.1157 73.9689C25.4704 73.8513 25.8708 73.1476 26.2255 71.364C26.4738 70.096 26.592 69.4158 26.8386 68.0303H31.6543V75.0723H29.624V69.7215H29.6257Z" fill="white"/>
<path d="M33.1201 71.8105C33.1201 69.298 34.5609 67.8906 36.6859 67.8906C38.8108 67.8906 40.2499 69.3115 40.2499 71.8105C40.2499 74.323 38.8091 75.8009 36.6859 75.8009C34.5593 75.8009 33.1201 74.323 33.1201 71.8105ZM38.1723 71.8105C38.1723 70.4249 37.6048 69.6272 36.6842 69.6272C35.7636 69.6272 35.1961 70.4249 35.1961 71.8105C35.1961 73.1961 35.7619 74.0644 36.6842 74.0644C37.6048 74.0644 38.1723 73.1961 38.1723 71.8105Z" fill="white"/>
<path d="M41.6182 68.0317H43.6485V70.9422H45.4897L48.346 75.6599H46.221L44.3089 72.5612H43.6485V75.6599H41.6182V68.0317ZM44.1215 71.2714L45.2785 69.2527C45.8444 68.2668 46.4829 67.8906 47.4271 67.8906C47.6636 67.8906 47.9473 67.9141 48.1348 68.0082L47.8038 69.8153C47.6619 69.7683 47.52 69.7683 47.449 69.7683C47.0943 69.7683 46.895 69.9329 46.6467 70.3544L45.868 71.6694L44.1215 71.2714Z" fill="white"/>
<path d="M50.6124 69.7213H48.582V68.0317H54.673V69.7213H52.6427V75.6599H50.6124V69.7213Z" fill="white"/>
<path d="M55.123 71.8105C55.123 69.298 56.5639 67.8906 58.6888 67.8906C60.8137 67.8906 62.2546 69.3115 62.2546 71.8105C62.2546 74.323 60.8137 75.8009 58.6888 75.8009C56.5622 75.8009 55.123 74.323 55.123 71.8105ZM60.1752 71.8105C60.1752 70.4249 59.6094 69.6272 58.6888 69.6272C57.7682 69.6272 57.2007 70.4249 57.2007 71.8105C57.2007 73.1961 57.7665 74.0644 58.6888 74.0644C59.6111 74.0644 60.1752 73.1961 60.1752 71.8105Z" fill="white"/>
<path d="M63.6211 68.0317H66.4301C68.1057 68.0317 69.5466 68.6414 69.5466 70.5677C69.5466 72.4336 68.0821 73.2431 66.4774 73.2431H65.6514V75.6616H63.6211V68.0317ZM66.3845 71.646C67.1868 71.646 67.5652 71.2462 67.5652 70.5661C67.5652 69.8859 67.1159 69.6272 66.3372 69.6272H65.6531V71.646H66.3845Z" fill="white"/>
<path d="M117.94 41.28C115.847 41.28 114.107 40.58 112.72 39.18C111.347 37.7933 110.66 36.0667 110.66 34C110.66 31.92 111.347 30.1933 112.72 28.82C114.107 27.42 115.847 26.72 117.94 26.72C119.207 26.72 120.373 27.02 121.44 27.62C122.52 28.2067 123.36 29.0067 123.96 30.02L121.58 31.4C121.233 30.7733 120.74 30.2867 120.1 29.94C119.46 29.58 118.74 29.4 117.94 29.4C116.58 29.4 115.48 29.8267 114.64 30.68C113.813 31.5467 113.4 32.6533 113.4 34C113.4 35.3333 113.813 36.4333 114.64 37.3C115.48 38.1533 116.58 38.58 117.94 38.58C118.74 38.58 119.46 38.4067 120.1 38.06C120.753 37.7 121.247 37.2133 121.58 36.6L123.96 37.98C123.36 38.9933 122.52 39.8 121.44 40.4C120.373 40.9867 119.207 41.28 117.94 41.28ZM124.712 31H133.572V33.48H130.452V41H127.872V33.48H124.712V31ZM143.079 39.76C142.066 40.7733 140.812 41.28 139.319 41.28C137.826 41.28 136.572 40.7733 135.559 39.76C134.546 38.7467 134.039 37.4933 134.039 36C134.039 34.52 134.546 33.2733 135.559 32.26C136.586 31.2333 137.839 30.72 139.319 30.72C140.799 30.72 142.052 31.2333 143.079 32.26C144.106 33.2867 144.619 34.5333 144.619 36C144.619 37.48 144.106 38.7333 143.079 39.76ZM137.379 37.98C137.899 38.5 138.546 38.76 139.319 38.76C140.092 38.76 140.739 38.5 141.259 37.98C141.779 37.46 142.039 36.8 142.039 36C142.039 35.2 141.779 34.54 141.259 34.02C140.739 33.5 140.092 33.24 139.319 33.24C138.546 33.24 137.899 33.5 137.379 34.02C136.872 34.5533 136.619 35.2133 136.619 36C136.619 36.7867 136.872 37.4467 137.379 37.98ZM154.294 31H156.834V41H154.334V35.16L151.794 39.16H151.474L148.914 35.12V41H146.434V31H148.974L151.634 35.2L154.294 31ZM166.788 32.18V31H169.368V41H166.788V39.82C166.014 40.7933 164.928 41.28 163.528 41.28C162.194 41.28 161.048 40.7733 160.088 39.76C159.141 38.7333 158.668 37.48 158.668 36C158.668 34.5333 159.141 33.2867 160.088 32.26C161.048 31.2333 162.194 30.72 163.528 30.72C164.928 30.72 166.014 31.2067 166.788 32.18ZM162.028 38.04C162.548 38.56 163.208 38.82 164.008 38.82C164.808 38.82 165.468 38.56 165.988 38.04C166.521 37.5067 166.788 36.8267 166.788 36C166.788 35.1733 166.521 34.5 165.988 33.98C165.468 33.4467 164.808 33.18 164.008 33.18C163.208 33.18 162.548 33.4467 162.028 33.98C161.508 34.5 161.248 35.1733 161.248 36C161.248 36.8267 161.508 37.5067 162.028 38.04ZM170.727 31H179.587V33.48H176.467V41H173.887V33.48H170.727V31ZM189.095 39.76C188.081 40.7733 186.828 41.28 185.335 41.28C183.841 41.28 182.588 40.7733 181.575 39.76C180.561 38.7467 180.055 37.4933 180.055 36C180.055 34.52 180.561 33.2733 181.575 32.26C182.601 31.2333 183.855 30.72 185.335 30.72C186.815 30.72 188.068 31.2333 189.095 32.26C190.121 33.2867 190.635 34.5333 190.635 36C190.635 37.48 190.121 38.7333 189.095 39.76ZM183.395 37.98C183.915 38.5 184.561 38.76 185.335 38.76C186.108 38.76 186.755 38.5 187.275 37.98C187.795 37.46 188.055 36.8 188.055 36C188.055 35.2 187.795 34.54 187.275 34.02C186.755 33.5 186.108 33.24 185.335 33.24C184.561 33.24 183.915 33.5 183.395 34.02C182.888 34.5533 182.635 35.2133 182.635 36C182.635 36.7867 182.888 37.4467 183.395 37.98ZM192.856 31H200.776V41H198.196V33.48H195.436V36.82C195.436 39.9 194.029 41.2933 191.216 41V38.58C191.749 38.7133 192.156 38.62 192.436 38.3C192.716 37.98 192.856 37.44 192.856 36.68V31ZM211.634 39.76C210.62 40.7733 209.367 41.28 207.874 41.28C206.38 41.28 205.127 40.7733 204.114 39.76C203.1 38.7467 202.594 37.4933 202.594 36C202.594 34.52 203.1 33.2733 204.114 32.26C205.14 31.2333 206.394 30.72 207.874 30.72C209.354 30.72 210.607 31.2333 211.634 32.26C212.66 33.2867 213.174 34.5333 213.174 36C213.174 37.48 212.66 38.7333 211.634 39.76ZM205.934 37.98C206.454 38.5 207.1 38.76 207.874 38.76C208.647 38.76 209.294 38.5 209.814 37.98C210.334 37.46 210.594 36.8 210.594 36C210.594 35.2 210.334 34.54 209.814 34.02C209.294 33.5 208.647 33.24 207.874 33.24C207.1 33.24 206.454 33.5 205.934 34.02C205.427 34.5533 205.174 35.2133 205.174 36C205.174 36.7867 205.427 37.4467 205.934 37.98ZM214.989 31H221.829V33.48H217.569V41H214.989V31ZM225.731 36.68L230.431 31H232.351V41H229.831V35.32L225.131 41H223.211V31H225.731V36.68ZM240.615 35.4V31H243.195V41H240.615V37.82C239.868 38.06 239.075 38.18 238.235 38.18C237.008 38.18 236.035 37.8667 235.315 37.24C234.595 36.6133 234.235 35.7267 234.235 34.58V31H236.815V34.28C236.815 35.28 237.435 35.78 238.675 35.78C239.408 35.78 240.055 35.6533 240.615 35.4ZM255.255 37.06H247.715C248.049 38.3133 248.989 38.94 250.535 38.94C251.522 38.94 252.269 38.6067 252.775 37.94L254.855 39.14C253.869 40.5667 252.415 41.28 250.495 41.28C248.842 41.28 247.515 40.78 246.515 39.78C245.515 38.78 245.015 37.52 245.015 36C245.015 34.5067 245.509 33.2533 246.495 32.24C247.469 31.2267 248.735 30.72 250.295 30.72C251.775 30.72 252.982 31.2267 253.915 32.24C254.875 33.2533 255.355 34.5067 255.355 36C255.355 36.28 255.322 36.6333 255.255 37.06ZM247.675 35.06H252.775C252.629 34.4067 252.329 33.9067 251.875 33.56C251.435 33.2133 250.909 33.04 250.295 33.04C249.602 33.04 249.029 33.22 248.575 33.58C248.122 33.9267 247.822 34.42 247.675 35.06ZM261.838 41.28C260.332 41.28 259.072 40.7733 258.058 39.76C257.058 38.7467 256.558 37.4933 256.558 36C256.558 34.5067 257.058 33.2533 258.058 32.24C259.072 31.2267 260.332 30.72 261.838 30.72C262.812 30.72 263.698 30.9533 264.498 31.42C265.298 31.8867 265.905 32.5133 266.318 33.3L264.098 34.6C263.898 34.1867 263.592 33.86 263.178 33.62C262.778 33.38 262.325 33.26 261.818 33.26C261.045 33.26 260.405 33.52 259.898 34.04C259.392 34.5467 259.138 35.2 259.138 36C259.138 36.7733 259.392 37.4267 259.898 37.96C260.405 38.4667 261.045 38.72 261.818 38.72C262.338 38.72 262.798 38.6067 263.198 38.38C263.612 38.14 263.918 37.8133 264.118 37.4L266.358 38.68C265.918 39.48 265.292 40.1133 264.478 40.58C263.678 41.0467 262.798 41.28 261.838 41.28ZM272.881 35.94L277.021 41H274.021L270.381 36.46V41H267.801V31H270.381V35.4L273.821 31H276.901L272.881 35.94ZM285.186 32.18V31H287.766V41H285.186V39.82C284.413 40.7933 283.326 41.28 281.926 41.28C280.593 41.28 279.446 40.7733 278.486 39.76C277.54 38.7333 277.066 37.48 277.066 36C277.066 34.5333 277.54 33.2867 278.486 32.26C279.446 31.2333 280.593 30.72 281.926 30.72C283.326 30.72 284.413 31.2067 285.186 32.18ZM280.426 38.04C280.946 38.56 281.606 38.82 282.406 38.82C283.206 38.82 283.866 38.56 284.386 38.04C284.92 37.5067 285.186 36.8267 285.186 36C285.186 35.1733 284.92 34.5 284.386 33.98C283.866 33.4467 283.206 33.18 282.406 33.18C281.606 33.18 280.946 33.4467 280.426 33.98C279.906 34.5 279.646 35.1733 279.646 36C279.646 36.8267 279.906 37.5067 280.426 38.04ZM293.446 31H298.126V41H295.606V37.88H294.706L292.406 41H289.426L291.926 37.58C291.286 37.3133 290.772 36.8933 290.386 36.32C290.012 35.7467 289.826 35.12 289.826 34.44C289.826 33.52 290.159 32.7133 290.826 32.02C291.479 31.34 292.352 31 293.446 31ZM295.606 33.3H293.646C293.272 33.3 292.959 33.4133 292.706 33.64C292.466 33.8667 292.346 34.16 292.346 34.52C292.346 34.88 292.466 35.1667 292.706 35.38C292.959 35.5933 293.272 35.7 293.646 35.7H295.606V33.3ZM116.26 59.94L120.4 65H117.4L113.76 60.46V65H111.18V55H113.76V59.4L117.2 55H120.28L116.26 59.94ZM122.348 55H130.268V65H127.688V57.48H124.928V60.82C124.928 63.9 123.521 65.2933 120.708 65V62.58C121.241 62.7133 121.648 62.62 121.928 62.3C122.208 61.98 122.348 61.44 122.348 60.68V55ZM135.126 60.68L139.826 55H141.746V65H139.226V59.32L134.526 65H132.606V55H135.126V60.68ZM150.67 58.78V55H153.25V65H150.67V61.2H146.69V65H144.11V55H146.69V58.78H150.67ZM158.134 60.68L162.834 55H164.754V65H162.234V59.32L157.534 65H155.614V55H158.134V60.68ZM172.198 59.94L176.338 65H173.338L169.698 60.46V65H167.118V55H169.698V59.4L173.138 55H176.217L172.198 59.94ZM184.503 56.18V55H187.083V65H184.503V63.82C183.729 64.7933 182.643 65.28 181.243 65.28C179.909 65.28 178.763 64.7733 177.803 63.76C176.856 62.7333 176.383 61.48 176.383 60C176.383 58.5333 176.856 57.2867 177.803 56.26C178.763 55.2333 179.909 54.72 181.243 54.72C182.643 54.72 183.729 55.2067 184.503 56.18ZM179.743 62.04C180.263 62.56 180.923 62.82 181.723 62.82C182.523 62.82 183.183 62.56 183.703 62.04C184.236 61.5067 184.503 60.8267 184.503 60C184.503 59.1733 184.236 58.5 183.703 57.98C183.183 57.4467 182.523 57.18 181.723 57.18C180.923 57.18 180.263 57.4467 179.743 57.98C179.223 58.5 178.963 59.1733 178.963 60C178.963 60.8267 179.223 61.5067 179.743 62.04Z" fill="#099DBA"/>
<defs>
<linearGradient id="paint0_linear_82_314" x1="46.3272" y1="6.56358" x2="48.2918" y2="88.5618" gradientUnits="userSpaceOnUse">
<stop stop-color="#38E0DE"/>
<stop offset="1" stop-color="#0699B8"/>
</linearGradient>
</defs>
</svg>
