<svg width="64" height="63" viewBox="0 0 64 63" fill="none" xmlns="http://www.w3.org/2000/svg">
<path d="M31.7072 60.5212C47.7975 60.5212 60.8412 47.5521 60.8412 31.5538C60.8412 15.5556 47.7975 2.58643 31.7072 2.58643C15.617 2.58643 2.57324 15.5556 2.57324 31.5538C2.57324 47.5521 15.617 60.5212 31.7072 60.5212Z" fill="url(#paint0_linear_82_1651)"/>
<path d="M34.1706 21.0655C34.0642 20.7019 33.951 20.3394 33.8208 19.9871C33.7574 19.8104 33.6906 19.6359 33.6159 19.4671C33.5412 19.3005 33.4585 19.135 33.36 19.0034C33.3125 18.9392 33.2559 18.884 33.2197 18.8705C33.2015 18.8627 33.1993 18.8683 33.2015 18.8705V18.8717L33.1902 18.8739C33.1857 18.875 33.1823 18.8762 33.1834 18.8773C33.1834 18.8784 33.1868 18.8795 33.1846 18.8807C33.1732 18.8908 33.1246 18.9561 33.0906 19.0259C33.0544 19.0968 33.0204 19.1778 32.9887 19.26C32.8642 19.5943 32.7691 19.9567 32.6785 20.3181C32.4951 21.0418 32.3378 21.7791 32.1917 22.5175C32.0434 23.257 31.8929 23.9954 31.7547 24.7383L31.5476 25.8526L31.3325 26.967C31.26 27.3396 31.1887 27.7133 31.1095 28.0892C31.0302 28.4663 30.9487 28.8434 30.8378 29.234C30.7823 29.4298 30.7178 29.6279 30.6238 29.8384C30.5785 29.9431 30.5219 30.0534 30.4506 30.1671C30.3793 30.2796 30.2853 30.4035 30.1438 30.5216C30.0057 30.6387 29.7974 30.74 29.5902 30.7648C29.3842 30.7929 29.1781 30.758 29.0219 30.6972C28.7049 30.5723 28.5136 30.3967 28.3449 30.2335C28.0178 29.9003 27.7925 29.5604 27.5763 29.2204C27.3646 28.8794 27.1744 28.5406 26.9932 28.1973C26.2755 26.8207 25.6789 25.3855 25.2136 23.9121C24.7619 22.4342 24.4053 20.9293 24.2151 19.3973C24.1653 19.0146 24.1257 18.6308 24.094 18.2447C24.0793 18.0511 24.0668 17.8586 24.0578 17.6605C24.0521 17.4635 24.0498 17.2744 24.0498 17.0819C24.0487 16.3143 24.077 15.5466 24.137 14.7835C24.2717 13.2583 24.5185 11.7455 24.9261 10.2788L24.9929 10.2912C24.7132 11.7781 24.548 13.2853 24.4936 14.7959C24.4506 16.3064 24.4834 17.8237 24.7393 19.3151C24.9804 20.8077 25.3449 22.2789 25.8181 23.7151C26.2936 25.1503 26.88 26.5494 27.5921 27.8832C27.7687 28.2175 27.9487 28.5496 28.1468 28.8704C28.3449 29.1901 28.5555 29.5052 28.8147 29.7709C28.9449 29.9014 29.0887 30.0208 29.2529 30.0849C29.4147 30.1491 29.5981 30.1322 29.7295 30.0185C29.863 29.9093 29.9536 29.7427 30.0306 29.5761C30.1076 29.4073 30.1676 29.2295 30.223 29.0505C30.437 28.329 30.5864 27.5849 30.7483 26.8466C30.9057 26.1059 31.0642 25.3653 31.2283 24.6257C31.3925 23.8862 31.5623 23.1478 31.7423 22.4117C31.9223 21.6755 32.1114 20.9416 32.3321 20.2156C32.4442 19.8532 32.5608 19.4907 32.7147 19.1407C32.7544 19.054 32.7951 18.9662 32.8461 18.8829C32.897 18.8007 32.9502 18.7152 33.0419 18.6544C33.0895 18.624 33.1461 18.6128 33.1981 18.6116C33.2547 18.6116 33.3102 18.6308 33.3532 18.6589C33.4427 18.7163 33.5027 18.7985 33.5559 18.8795C33.6589 19.045 33.7325 19.2228 33.7981 19.4018C33.8638 19.5808 33.9193 19.7631 33.9713 19.9455C34.0744 20.3113 34.1581 20.6816 34.2351 21.052L34.1706 21.0655Z" fill="white"/>
<path d="M23.7197 9.92206C24.2371 9.47969 24.836 9.13076 25.4722 8.85386C25.7926 8.71991 26.1231 8.60735 26.4605 8.51168C26.799 8.416 27.1522 8.35747 27.5054 8.31469C27.682 8.29443 27.8597 8.2798 28.0375 8.27192C28.1269 8.26629 28.2152 8.26629 28.3035 8.26629C28.3918 8.26629 28.4801 8.26517 28.5684 8.26854C28.9216 8.27305 29.2703 8.30907 29.6167 8.35071C29.7899 8.3721 29.962 8.39911 30.1318 8.42951C30.3027 8.45765 30.4714 8.49254 30.6412 8.52631C30.9786 8.59947 31.3114 8.68277 31.642 8.77282C32.9609 9.14314 34.2367 9.65754 35.4277 10.3171C36.6231 10.9666 37.7405 11.7534 38.7186 12.6888L38.6812 12.7451C38.1243 12.3815 37.5548 12.0359 36.9741 11.7129C36.3945 11.3865 35.8024 11.0826 35.199 10.8023C33.9933 10.2417 32.7412 9.77685 31.4597 9.42341C30.8201 9.24332 30.1714 9.09023 29.516 8.9833C28.8605 8.87637 28.196 8.82122 27.5348 8.85161C26.8737 8.882 26.2171 9.01032 25.5831 9.2028C24.9469 9.3919 24.3344 9.65641 23.7548 9.98059L23.7197 9.92206Z" fill="white"/>
<path d="M35.5405 12.8443C35.3786 12.9737 35.193 13.1009 34.9541 13.1133C34.8352 13.1189 34.713 13.0773 34.6111 13.0143C34.5092 12.9501 34.4265 12.8646 34.3564 12.7734C34.2148 12.5899 34.1265 12.3805 34.0586 12.1678C33.9918 11.9551 33.9499 11.7356 33.9307 11.5127C33.9216 11.4013 33.9296 11.2898 33.9409 11.1795C33.9533 11.0692 33.9658 10.9578 33.9862 10.8486C34.0247 10.6291 34.0881 10.4119 34.1752 10.2025C34.2647 9.99089 34.3745 9.80066 34.4979 9.61719C34.6224 9.43371 34.7605 9.25924 34.9258 9.09941C35.0922 8.94182 35.2847 8.78987 35.545 8.7122C35.6096 8.69306 35.6797 8.68181 35.7499 8.67731C35.8201 8.67505 35.8971 8.67956 35.9628 8.69419C36.0975 8.7212 36.2265 8.77974 36.333 8.85515C36.5492 9.00711 36.6873 9.20859 36.7994 9.40782C36.9092 9.60818 36.9896 9.81529 37.0575 10.0224C37.1911 10.4377 37.2726 10.8576 37.3348 11.2774C37.396 11.6973 37.4367 12.1183 37.4639 12.5381C37.5182 13.3778 37.5194 14.2209 37.499 15.0538C37.4831 15.889 37.4469 16.7287 37.3598 17.5662C37.2726 18.4025 37.139 19.2377 36.9352 20.0583C36.6647 20.862 36.3296 21.6431 35.8937 22.3613C36.1643 21.5688 36.3635 20.764 36.4948 19.9502C36.6941 19.1544 36.8231 18.3395 36.9092 17.52C36.9941 16.6995 37.0303 15.8744 37.0462 15.0448C37.0677 14.2141 37.0654 13.3902 37.0122 12.5674C36.9862 12.1565 36.9465 11.748 36.8877 11.3427C36.8277 10.9398 36.7484 10.5391 36.6273 10.1609C36.5662 9.97288 36.4937 9.7894 36.4031 9.62394C36.3126 9.46073 36.2016 9.31215 36.0737 9.22322C36.0103 9.1782 35.9435 9.14893 35.8733 9.1343C35.8043 9.11967 35.7431 9.12304 35.6707 9.14443C35.5269 9.18495 35.3752 9.29301 35.2416 9.42246C34.9745 9.68472 34.7447 10.0303 34.593 10.3758C34.4447 10.727 34.3824 11.1187 34.3869 11.5059C34.362 11.8909 34.3982 12.2995 34.5658 12.6406C34.6496 12.8083 34.7786 12.9535 34.962 12.9827C35.1477 13.0143 35.356 12.94 35.5405 12.8443Z" fill="white"/>
<path d="M20.1838 34.6068L20.5902 34.7093C20.5053 35.0413 20.3513 35.2946 20.1306 35.469C19.9087 35.6435 19.6381 35.7302 19.3177 35.7302C18.986 35.7302 18.7166 35.6626 18.5094 35.5287C18.3023 35.3948 18.1438 35.2 18.0351 34.9456C17.9264 34.6912 17.8721 34.4177 17.8721 34.1262C17.8721 33.8076 17.9332 33.5308 18.0555 33.2932C18.1777 33.0569 18.3521 32.8768 18.5774 32.753C18.8026 32.6303 19.0517 32.5684 19.3223 32.5684C19.6302 32.5684 19.8883 32.646 20.0977 32.8014C20.3072 32.9567 20.4532 33.1762 20.5359 33.4576L20.1351 33.551C20.0638 33.3281 19.9608 33.1672 19.8249 33.0659C19.6891 32.9646 19.5192 32.9139 19.3132 32.9139C19.0766 32.9139 18.8796 32.9702 18.7211 33.0828C18.5626 33.1953 18.4506 33.3462 18.3872 33.5364C18.3238 33.7266 18.2909 33.9213 18.2909 34.1228C18.2909 34.3828 18.3294 34.6091 18.4053 34.8038C18.4811 34.9974 18.6 35.1426 18.7608 35.2383C18.9215 35.334 19.0958 35.3824 19.2826 35.3824C19.5102 35.3824 19.7038 35.3171 19.8611 35.1865C20.0208 35.0582 20.1283 34.8646 20.1838 34.6068Z" fill="white"/>
<path d="M20.8408 33.4653H22.6499V33.776H21.9333V35.6794H21.5586V33.776H20.842V33.4653H20.8408Z" fill="white"/>
<path d="M22.8213 34.5722C22.8213 34.1624 22.9356 33.8585 23.1654 33.6615C23.3568 33.4972 23.59 33.415 23.8662 33.415C24.1719 33.415 24.422 33.5152 24.6168 33.7145C24.8115 33.9137 24.9077 34.1895 24.9077 34.5406C24.9077 34.8254 24.8647 35.0494 24.7786 35.2126C24.6926 35.3758 24.5681 35.503 24.4039 35.5931C24.2398 35.6831 24.0609 35.7282 23.8662 35.7282C23.5549 35.7282 23.3024 35.6291 23.11 35.4299C22.9164 35.2318 22.8213 34.9459 22.8213 34.5722ZM23.2085 34.5722C23.2085 34.8558 23.2707 35.0674 23.3953 35.2093C23.5198 35.35 23.676 35.4209 23.8651 35.4209C24.0519 35.4209 24.2081 35.35 24.3326 35.2081C24.4571 35.0663 24.5194 34.8502 24.5194 34.5598C24.5194 34.2863 24.4571 34.0791 24.3315 33.9373C24.2069 33.7966 24.0507 33.7257 23.8651 33.7257C23.676 33.7257 23.5198 33.7955 23.3953 33.9362C23.2707 34.0769 23.2085 34.2885 23.2085 34.5722Z" fill="white"/>
<path d="M25.3594 33.4653H25.9469L26.5322 35.237L27.182 33.4653H27.7254V35.6794H27.3484V33.8976L26.6907 35.6794H26.3533L25.7307 33.812V35.6794H25.3616V33.4653H25.3594Z" fill="white"/>
<path d="M29.7542 35.4061C29.615 35.5243 29.4802 35.6076 29.3512 35.656C29.2221 35.7044 29.0829 35.7291 28.9346 35.7291C28.6901 35.7291 28.5021 35.6695 28.3708 35.5513C28.2395 35.432 28.1738 35.2811 28.1738 35.0954C28.1738 34.9874 28.1987 34.8883 28.2485 34.7983C28.2984 34.7082 28.3629 34.6362 28.4433 34.5821C28.5236 34.5281 28.6142 34.4865 28.715 34.4595C28.7885 34.4403 28.9006 34.4212 29.0501 34.4032C29.3546 34.3672 29.5787 34.3244 29.7225 34.2737C29.7236 34.2219 29.7248 34.1893 29.7248 34.1758C29.7248 34.0227 29.6897 33.9158 29.6172 33.8527C29.521 33.7683 29.3772 33.7256 29.187 33.7256C29.0093 33.7256 28.878 33.7559 28.7942 33.8179C28.7093 33.8798 28.647 33.9889 28.6063 34.1465L28.2372 34.097C28.2712 33.9394 28.3255 33.8134 28.4025 33.7166C28.4795 33.6198 28.5904 33.5455 28.7353 33.4937C28.8802 33.4419 29.0489 33.416 29.2402 33.416C29.4304 33.416 29.5844 33.4385 29.7033 33.4824C29.8221 33.5274 29.9093 33.5826 29.9659 33.6501C30.0214 33.7177 30.061 33.8021 30.0836 33.9057C30.0961 33.9698 30.1029 34.0846 30.1029 34.2512V34.751C30.1029 35.0999 30.1108 35.3205 30.1267 35.4128C30.1425 35.5051 30.1742 35.5941 30.2218 35.6785H29.8278C29.7904 35.6008 29.7655 35.5096 29.7542 35.4061ZM29.7225 34.5675C29.5855 34.6227 29.3795 34.6699 29.1067 34.7093C28.9516 34.7318 28.8418 34.7566 28.7772 34.7847C28.7127 34.8129 28.6629 34.8534 28.6289 34.9063C28.5938 34.9603 28.5768 35.0189 28.5768 35.0842C28.5768 35.1843 28.6153 35.2676 28.6912 35.334C28.767 35.4005 28.8791 35.4342 29.0252 35.4342C29.1701 35.4342 29.3002 35.4027 29.4135 35.3397C29.5267 35.2766 29.6093 35.19 29.6625 35.0797C29.7033 34.9952 29.7236 34.8703 29.7236 34.7048V34.5675H29.7225Z" fill="white"/>
<path d="M30.3916 33.4653H32.2006V33.776H31.484V35.6794H31.1093V33.776H30.3927V33.4653H30.3916Z" fill="white"/>
<path d="M32.373 34.5722C32.373 34.1624 32.4874 33.8585 32.7172 33.6615C32.9085 33.4972 33.1417 33.415 33.418 33.415C33.7236 33.415 33.9738 33.5152 34.1685 33.7145C34.3632 33.9137 34.4595 34.1895 34.4595 34.5406C34.4595 34.8254 34.4165 35.0494 34.3304 35.2126C34.2444 35.3758 34.1198 35.503 33.9557 35.5931C33.7915 35.6831 33.6127 35.7282 33.418 35.7282C33.1066 35.7282 32.8542 35.6291 32.6617 35.4299C32.4693 35.2306 32.373 34.9459 32.373 34.5722ZM32.7602 34.5722C32.7602 34.8558 32.8225 35.0674 32.947 35.2093C33.0715 35.3511 33.2278 35.4209 33.4168 35.4209C33.6036 35.4209 33.7598 35.35 33.8844 35.2081C34.0089 35.0663 34.0712 34.8502 34.0712 34.5598C34.0712 34.2863 34.0089 34.0791 33.8832 33.9373C33.7587 33.7966 33.6025 33.7257 33.4168 33.7257C33.2278 33.7257 33.0715 33.7955 32.947 33.9362C32.8225 34.0769 32.7602 34.2885 32.7602 34.5722Z" fill="white"/>
<path d="M34.991 33.4653H36.7434V35.6794H36.3676V33.776H35.368V34.8791C35.368 35.1357 35.36 35.3057 35.3431 35.3879C35.3261 35.47 35.2797 35.5409 35.2049 35.6029C35.1302 35.6648 35.0204 35.694 34.8778 35.694C34.7895 35.694 34.6887 35.6884 34.5732 35.6771V35.3642H34.7385C34.8166 35.3642 34.8732 35.3563 34.9061 35.3406C34.94 35.3248 34.9615 35.2989 34.9729 35.264C34.9842 35.2292 34.9898 35.1166 34.9898 34.9241V33.4653H34.991Z" fill="white"/>
<path d="M37.2197 34.5722C37.2197 34.1624 37.3341 33.8585 37.5639 33.6615C37.7552 33.4972 37.9884 33.415 38.2646 33.415C38.5703 33.415 38.8205 33.5152 39.0152 33.7145C39.2099 33.9137 39.3061 34.1895 39.3061 34.5406C39.3061 34.8254 39.2631 35.0494 39.1771 35.2126C39.091 35.3758 38.9665 35.503 38.8024 35.5931C38.6382 35.6831 38.4593 35.7282 38.2646 35.7282C37.9533 35.7282 37.7009 35.6291 37.5084 35.4299C37.316 35.2306 37.2197 34.9459 37.2197 34.5722ZM37.608 34.5722C37.608 34.8558 37.6703 35.0674 37.7948 35.2093C37.9194 35.3511 38.0756 35.4209 38.2646 35.4209C38.4514 35.4209 38.6077 35.35 38.7322 35.2081C38.8567 35.0663 38.919 34.8502 38.919 34.5598C38.919 34.2863 38.8567 34.0791 38.731 33.9373C38.6065 33.7966 38.4503 33.7257 38.2646 33.7257C38.0756 33.7257 37.9194 33.7955 37.7948 33.9362C37.6703 34.0769 37.608 34.2885 37.608 34.5722Z" fill="white"/>
<path d="M39.749 33.4653H41.0294V33.776H40.126V35.6794H39.749V33.4653Z" fill="white"/>
<path d="M41.3145 33.4653H41.6914V35.1537L42.7375 33.4653H43.1439V35.6794H42.7669V34.0011L41.7209 35.6794H41.3145V33.4653Z" fill="white"/>
<path d="M45.4651 33.4653V35.6794H45.0904V34.8161H44.8719C44.7394 34.8161 44.6398 34.8329 44.5753 34.8667C44.5107 34.9005 44.4156 35.0097 44.2911 35.1954L43.9617 35.6794H43.4941L43.9006 35.0828C44.0251 34.9005 44.1485 34.798 44.2719 34.7744C44.0568 34.7451 43.8972 34.6686 43.793 34.5425C43.6889 34.4176 43.6368 34.2735 43.6368 34.1114C43.6368 33.9201 43.7047 33.7636 43.8417 33.6443C43.9775 33.525 44.1756 33.4653 44.4338 33.4653H45.4651ZM45.0892 33.7749H44.5526C44.3273 33.7749 44.1824 33.8098 44.1179 33.8796C44.0534 33.9493 44.0206 34.0304 44.0206 34.1238C44.0206 34.2555 44.0681 34.3523 44.1643 34.4142C44.2594 34.4761 44.4292 34.5065 44.6726 34.5065H45.0904V33.7749H45.0892Z" fill="white"/>
<path d="M10.7031 41.0662C10.7031 39.3519 11.8895 38.376 13.1869 38.376C13.8673 38.376 14.4209 38.6911 14.7854 39.0525L14.0733 39.9181C13.8197 39.6974 13.5673 39.541 13.2186 39.541C12.6175 39.541 12.0956 40.0914 12.0956 41.02C12.0956 41.9802 12.5382 42.5148 13.2027 42.5148C13.5978 42.5148 13.9148 42.31 14.1367 42.0747L14.8488 42.9245C14.4141 43.4277 13.8209 43.6798 13.1552 43.6798C11.842 43.6776 10.7031 42.812 10.7031 41.0662Z" fill="white"/>
<path d="M15.5605 38.4697H18.8832V39.6021H16.9213V40.4046H18.599V41.537H16.9213V42.4499H18.9624V43.5822H15.5605V38.4697Z" fill="white"/>
<path d="M19.959 38.4697H21.4148L22.1903 40.5622C22.2854 40.8459 22.3646 41.1599 22.4597 41.4593H22.4914C22.5865 41.1599 22.6658 40.8459 22.7609 40.5622L23.5046 38.4697H24.9605V43.5834H23.7265V42.0728C23.7265 41.5539 23.8375 40.7592 23.9009 40.2482H23.8692L23.4424 41.4751L22.8096 43.1669H22.0816L21.4488 41.4751L21.0379 40.2482H21.0062C21.0696 40.7592 21.1805 41.5539 21.1805 42.0728V43.5834H19.959V38.4697Z" fill="white"/>
<path d="M26.0986 38.4697H29.4213V39.6021H27.4594V40.4046H29.1371V41.537H27.4594V42.4499H29.5005V43.5822H26.0986V38.4697Z" fill="white"/>
<path d="M30.4961 38.4695H31.841V39.9486C31.841 40.5778 31.7301 41.3488 31.6667 41.8992H31.6984L32.1885 40.7511L33.3274 38.4695H34.7674V43.5831H33.4225V42.1041C33.4225 41.4749 33.5334 40.7354 33.5968 40.1534H33.5651L33.075 41.2937L31.9361 43.5831H30.4961V38.4695ZM31.1765 36.9443H32.3153C32.3312 37.2359 32.4421 37.3844 32.664 37.3844C32.8859 37.3844 32.9957 37.2347 33.0116 36.9443H34.1504C34.1187 37.6051 33.7236 38.0452 32.6629 38.0452C31.6044 38.0452 31.2082 37.6051 31.1765 36.9443Z" fill="white"/>
<path d="M35.9072 38.4697H37.268V40.3731H38.8031V38.4697H40.1638V43.5834H38.8031V41.5539H37.268V43.5834H35.9072V38.4697Z" fill="white"/>
<path d="M41.3047 38.4697H42.6654V40.2471H43.0605C44.2311 40.2471 45.1175 40.7029 45.1175 41.8679C45.1175 43.1579 44.1677 43.5822 43.0288 43.5822H41.3047V38.4697ZM42.9654 42.5129C43.4715 42.5129 43.7885 42.3396 43.7885 41.8837C43.7885 41.5066 43.519 41.3175 42.9654 41.3175H42.6643V42.5129H42.9654ZM45.7186 38.4697H47.0794V43.5834H45.7186V38.4697Z" fill="white"/>
<path d="M48.2178 38.4695H49.5627V39.9486C49.5627 40.5778 49.4517 41.3488 49.3883 41.8992H49.42L49.9102 40.7511L51.0491 38.4695H52.4891V43.5831H51.1442V42.1041C51.1442 41.4749 51.2551 40.7354 51.3185 40.1534H51.2868L50.7966 41.2937L49.6578 43.5831H48.2178V38.4695ZM48.8981 36.9443H50.0381C50.054 37.2359 50.1649 37.3844 50.3868 37.3844C50.6087 37.3844 50.7185 37.2347 50.7344 36.9443H51.8732C51.8415 37.6051 51.4465 38.0452 50.3857 38.0452C49.3261 38.0452 48.9298 37.6051 48.8981 36.9443Z" fill="white"/>
<path d="M17.9257 52.1874H16.7076L16.5967 50.4258V49.576H21.8654V50.4258L21.7544 52.1874H20.5363V50.7083H17.9257V52.1874ZM19.8559 46.7282H19.0329C18.9378 47.2471 18.8982 47.4677 18.7952 48.0024C18.5099 49.4657 17.9722 50.4247 17.0076 50.4247L16.8333 49.5749C17.071 49.4961 17.3393 49.0244 17.5771 47.829C17.7435 46.9792 17.8227 46.5233 17.988 45.5947H21.2155V50.3144H19.8548V46.7282H19.8559Z" fill="white"/>
<path d="M22.1982 48.1281C22.1982 46.4442 23.1639 45.501 24.5881 45.501C26.0122 45.501 26.9767 46.4532 26.9767 48.1281C26.9767 49.812 26.0111 50.8026 24.5881 50.8026C23.1628 50.8026 22.1982 49.812 22.1982 48.1281ZM25.5843 48.1281C25.5843 47.1995 25.2039 46.6648 24.5869 46.6648C23.9699 46.6648 23.5896 47.1995 23.5896 48.1281C23.5896 49.0568 23.9688 49.6387 24.5869 49.6387C25.2039 49.6387 25.5843 49.0568 25.5843 48.1281Z" fill="white"/>
<path d="M27.8936 45.5955H29.2543V47.5462H30.4883L32.4026 50.708H30.9785L29.697 48.6313H29.2543V50.708H27.8936V45.5955ZM29.5713 47.7668L30.3468 46.4138C30.726 45.7531 31.1539 45.501 31.7868 45.501C31.9453 45.501 32.1354 45.5167 32.2611 45.5798L32.0392 46.7909C31.9441 46.7594 31.849 46.7594 31.8015 46.7594C31.5637 46.7594 31.4302 46.8697 31.2637 47.1522L30.7419 48.0336L29.5713 47.7668Z" fill="white"/>
<path d="M33.9223 46.7281H32.5615V45.5957H36.6438V46.7281H35.283V50.7082H33.9223V46.7281Z" fill="white"/>
<path d="M36.9443 48.1281C36.9443 46.4442 37.91 45.501 39.3342 45.501C40.7583 45.501 41.724 46.4532 41.724 48.1281C41.724 49.812 40.7583 50.8026 39.3342 50.8026C37.9089 50.8026 36.9443 49.812 36.9443 48.1281ZM40.3304 48.1281C40.3304 47.1995 39.9511 46.6648 39.3342 46.6648C38.7172 46.6648 38.3368 47.1995 38.3368 48.1281C38.3368 49.0568 38.716 49.6387 39.3342 49.6387C39.9523 49.6387 40.3304 49.0568 40.3304 48.1281Z" fill="white"/>
<path d="M42.6396 45.5957H44.5223C45.6453 45.5957 46.611 46.0043 46.611 47.2954C46.611 48.5459 45.6295 49.0884 44.554 49.0884H44.0004V50.7093H42.6396V45.5957ZM44.4917 48.018C45.0295 48.018 45.283 47.7501 45.283 47.2942C45.283 46.8384 44.9819 46.665 44.46 46.665H44.0015V48.018H44.4917Z" fill="white"/>
<defs>
<linearGradient id="paint0_linear_82_1651" x1="31.0488" y1="4.39882" x2="32.3655" y2="59.3551" gradientUnits="userSpaceOnUse">
<stop stop-color="#38E0DE"/>
<stop offset="1" stop-color="#0699B8"/>
</linearGradient>
</defs>
</svg>
